<?xml version="1.0" standalone="no"?>
<!DOCTYPE svg PUBLIC "-//W3C//DTD SVG 20010904//EN"
 "http://www.w3.org/TR/2001/REC-SVG-20010904/DTD/svg10.dtd">
<svg version="1.0" xmlns="http://www.w3.org/2000/svg"
 width="512.000000pt" height="512.000000pt" viewBox="0 0 512.000000 512.000000"
 preserveAspectRatio="xMidYMid meet">
<metadata>
Created by potrace 1.11, written by Peter Selinger 2001-2013
</metadata>
<g transform="translate(0.000000,512.000000) scale(0.100000,-0.100000)"
fill="#000000" stroke="none">
<path d="M2395 4073 c-69 -8 -285 -48 -292 -53 -2 -2 -6 -3 -10 -4 -16 -4
-119 -38 -138 -46 -11 -5 -46 -20 -77 -34 -32 -14 -58 -23 -58 -20 0 3 -12 -3
-27 -14 -16 -10 -53 -31 -83 -47 -30 -15 -57 -31 -60 -34 -3 -4 -23 -18 -45
-31 -171 -101 -379 -310 -518 -518 -91 -135 -211 -404 -233 -521 -3 -12 -11
-51 -19 -85 -8 -33 -17 -89 -21 -124 -7 -64 -28 -92 -57 -76 -6 4 -9 3 -4 -1
4 -5 -23 -24 -60 -43 -161 -81 -311 -201 -380 -302 -135 -200 -74 -424 167
-611 88 -69 243 -153 385 -209 33 -13 62 -26 65 -29 3 -3 10 -7 15 -7 6 -1 55
-16 110 -34 249 -79 617 -153 870 -175 39 -4 81 -8 93 -10 163 -27 826 -27
1087 0 204 21 213 22 250 28 17 3 50 8 75 12 25 3 56 8 70 11 14 2 39 6 55 9
17 2 41 6 55 9 14 3 36 8 50 11 14 3 35 7 48 10 13 2 31 6 40 9 9 3 28 7 42
10 132 26 422 123 558 186 56 27 102 46 102 44 0 -3 6 0 13 6 6 6 53 37 102
69 145 95 241 196 290 311 15 34 20 66 19 135 0 83 -3 95 -37 161 -70 138
-213 258 -443 373 l-82 40 -7 68 c-10 104 -65 308 -113 428 -40 98 -127 256
-189 343 -287 404 -699 662 -1188 743 -66 11 -356 19 -420 12z"/>
</g>
</svg>
